<svg xmlns="http://www.w3.org/2000/svg" viewBox="0 0 64 64">
  <defs>
    <linearGradient id="bg" x1="0" y1="0" x2="1" y2="1">
      <stop offset="0" stop-color="#13287a"/>
      <stop offset="1" stop-color="#0b1a4a"/>
    </linearGradient>
  </defs>
  <rect width="64" height="64" rx="14" fill="url(#bg)"/>
  <path d="M8 52c10-3 14-9 24-10s16-6 24-12" fill="none" stroke="#ff8a3d" stroke-width="3" stroke-linecap="round" opacity=".9"/>
  <path d="M14 38l4-11c1-3 3-5 6-5h16c3 0 5 2 6 5l4 11v8a2 2 0 0 1-2 2h-3a2 2 0 0 1-2-2v-2H21v2a2 2 0 0 1-2 2h-3a2 2 0 0 1-2-2z" fill="#fff"/>
  <circle cx="21" cy="38" r="3" fill="#0b1a4a"/>
  <circle cx="43" cy="38" r="3" fill="#0b1a4a"/>
  <path d="M20 31l2-5c.5-1.3 1.5-2 3-2h14c1.5 0 2.5.7 3 2l2 5z" fill="#ff8a3d"/>
</svg>
